<?xml version="1.0" standalone="no"?>
<!DOCTYPE svg PUBLIC "-//W3C//DTD SVG 20010904//EN"
 "http://www.w3.org/TR/2001/REC-SVG-20010904/DTD/svg10.dtd">
<svg version="1.0" xmlns="http://www.w3.org/2000/svg"
 width="300.000000pt" height="300.000000pt" viewBox="0 0 300.000000 300.000000"
 preserveAspectRatio="xMidYMid meet">
<metadata>
Created by potrace 1.14, written by Peter Selinger 2001-2017
</metadata>
<g transform="translate(0.000000,300.000000) scale(0.100000,-0.100000)"
fill="#000000" stroke="none">
<path d="M1369 2996 c-2 -2 -29 -6 -59 -9 -353 -38 -710 -230 -946 -509 -62
-72 -69 -82 -111 -144 -122 -182 -203 -392 -238 -623 -17 -113 -13 -359 9
-481 53 -293 201 -576 416 -790 230 -230 505 -369 840 -425 63 -11 343 -14
405 -4 33 5 74 11 90 13 124 19 348 102 471 174 217 127 400 305 533 519 56
91 128 244 147 313 52 192 50 184 65 310 7 56 8 149 5 225 -7 139 -8 150 -26
235 -6 30 -13 65 -16 77 -2 12 -18 62 -35 110 -187 531 -642 911 -1194 998
-44 7 -350 16 -356 11z m352 -340 c276 -53 562 -230 709 -437 l20 -27 -80 -71
-81 -71 -36 47 c-79 104 -195 199 -318 261 -481 242 -1063 45 -1300 -439 l-43
-87 613 -614 c338 -337 620 -614 627 -616 23 -5 174 76 246 131 157 120 256
255 327 443 14 36 25 73 25 80 0 12 -44 14 -253 14 l-253 0 0 114 0 115 378 0
378 1 -6 -77 c-27 -365 -212 -688 -511 -897 -29 -20 -55 -36 -58 -36 -3 0 -22
-10 -43 -23 -49 -31 -173 -82 -243 -100 l-57 -14 -706 706 c-661 661 -706 709
-698 732 5 13 11 29 12 34 15 62 72 197 108 260 94 160 238 312 387 406 91 57
250 129 317 143 13 3 55 12 93 20 39 8 84 16 100 18 64 8 274 -1 346 -16z
m-816 -1756 l580 -580 -60 5 c-285 23 -541 136 -743 329 -47 44 -152 175 -193
241 -62 99 -126 272 -148 400 -10 59 -23 185 -18 185 1 0 263 -261 582 -580z"/>
</g>
</svg>
